<mxfile modified="2019-12-16T05:51:23.642Z" host="www.draw.io" agent="Mozilla/5.0 (Windows NT 10.0; Win64; x64) AppleWebKit/537.36 (KHTML, like Gecko) Chrome/79.0.3945.79 Safari/537.36" etag="QpEnv-FtdPySmk4GCAyR" version="12.4.2" type="github" pages="1">
  <diagram id="bv0tDKeVst-FSTXMygIP" name="Page-1">
    <mxGraphModel dx="1038" dy="548" grid="1" gridSize="10" guides="1" tooltips="1" connect="1" arrows="1" fold="1" page="1" pageScale="1" pageWidth="583" pageHeight="413" math="0" shadow="0">
      <root>
        <mxCell id="0"/>
        <mxCell id="1" parent="0"/>
        <mxCell id="9-4KeMkiLm9I7KY2BT6Z-1" value="" style="ellipse;html=1;shape=startState;fillColor=#000000;strokeColor=#ff0000;" parent="1" vertex="1">
          <mxGeometry x="395" y="62" width="30" height="30" as="geometry"/>
        </mxCell>
        <mxCell id="9-4KeMkiLm9I7KY2BT6Z-2" value="" style="edgeStyle=orthogonalEdgeStyle;html=1;verticalAlign=bottom;endArrow=open;endSize=8;strokeColor=#ff0000;entryX=0.5;entryY=0;entryDx=0;entryDy=0;" parent="1" source="9-4KeMkiLm9I7KY2BT6Z-1" target="9-4KeMkiLm9I7KY2BT6Z-5" edge="1">
          <mxGeometry relative="1" as="geometry">
            <mxPoint x="415" y="162" as="targetPoint"/>
          </mxGeometry>
        </mxCell>
        <mxCell id="9-4KeMkiLm9I7KY2BT6Z-3" value="Enter phone number" style="text;align=center;fontStyle=0;verticalAlign=middle;spacingLeft=3;spacingRight=3;strokeColor=none;rotatable=0;points=[[0,0.5],[1,0.5]];portConstraint=eastwest;" parent="1" vertex="1">
          <mxGeometry x="294" y="111" width="210" height="30" as="geometry"/>
        </mxCell>
        <mxCell id="9-4KeMkiLm9I7KY2BT6Z-5" value="&lt;p style=&quot;margin: 0px ; margin-top: 4px ; text-align: center&quot;&gt;&lt;b&gt;Checking&lt;/b&gt;&lt;/p&gt;" style="verticalAlign=top;align=left;overflow=fill;fontSize=12;fontFamily=Helvetica;html=1;" parent="1" vertex="1">
          <mxGeometry x="340" y="192" width="140" height="39" as="geometry"/>
        </mxCell>
        <mxCell id="9-4KeMkiLm9I7KY2BT6Z-6" value="&lt;p style=&quot;margin: 0px ; margin-top: 4px ; text-align: center&quot;&gt;&lt;b&gt;getToken&lt;/b&gt;&lt;/p&gt;" style="verticalAlign=top;align=left;overflow=fill;fontSize=12;fontFamily=Helvetica;html=1;" parent="1" vertex="1">
          <mxGeometry x="610" y="192" width="140" height="39" as="geometry"/>
        </mxCell>
        <mxCell id="9-4KeMkiLm9I7KY2BT6Z-7" value="user has been registered" style="html=1;verticalAlign=bottom;endArrow=block;exitX=1;exitY=0.5;exitDx=0;exitDy=0;entryX=0;entryY=0.5;entryDx=0;entryDy=0;" parent="1" source="9-4KeMkiLm9I7KY2BT6Z-5" target="9-4KeMkiLm9I7KY2BT6Z-6" edge="1">
          <mxGeometry width="80" relative="1" as="geometry">
            <mxPoint x="510" y="222" as="sourcePoint"/>
            <mxPoint x="590" y="222" as="targetPoint"/>
          </mxGeometry>
        </mxCell>
        <mxCell id="9-4KeMkiLm9I7KY2BT6Z-8" value="&lt;p style=&quot;margin: 0px ; margin-top: 4px ; text-align: center&quot;&gt;&lt;b&gt;SignUp&lt;/b&gt;&lt;/p&gt;" style="verticalAlign=top;align=left;overflow=fill;fontSize=12;fontFamily=Helvetica;html=1;" parent="1" vertex="1">
          <mxGeometry x="330" y="322" width="160" height="49" as="geometry"/>
        </mxCell>
        <mxCell id="9-4KeMkiLm9I7KY2BT6Z-9" value="user has not registered" style="html=1;verticalAlign=bottom;endArrow=block;exitX=0.5;exitY=1;exitDx=0;exitDy=0;entryX=0.5;entryY=0;entryDx=0;entryDy=0;" parent="1" source="9-4KeMkiLm9I7KY2BT6Z-5" target="9-4KeMkiLm9I7KY2BT6Z-8" edge="1">
          <mxGeometry width="80" relative="1" as="geometry">
            <mxPoint x="390" y="282" as="sourcePoint"/>
            <mxPoint x="470" y="282" as="targetPoint"/>
          </mxGeometry>
        </mxCell>
        <mxCell id="9-4KeMkiLm9I7KY2BT6Z-10" value="&lt;font style=&quot;font-size: 19px&quot;&gt;User (Athlete&amp;nbsp; , Coach , Admin ) SignUp and SignIn process&lt;/font&gt;" style="text;html=1;strokeColor=none;fillColor=none;align=center;verticalAlign=middle;whiteSpace=wrap;rounded=0;" parent="1" vertex="1">
          <mxGeometry x="540" y="42" width="280" height="20" as="geometry"/>
        </mxCell>
        <mxCell id="9-4KeMkiLm9I7KY2BT6Z-11" value="" style="ellipse;html=1;shape=endState;fillColor=#000000;strokeColor=#ff0000;" parent="1" vertex="1">
          <mxGeometry x="910" y="333.5" width="30" height="30" as="geometry"/>
        </mxCell>
        <mxCell id="9-4KeMkiLm9I7KY2BT6Z-12" value="transport user to main page and save &amp;nbsp;token in user&#39;s cell phone" style="html=1;verticalAlign=bottom;endArrow=block;exitX=1.013;exitY=0.6;exitDx=0;exitDy=0;exitPerimeter=0;entryX=0;entryY=0.5;entryDx=0;entryDy=0;" parent="1" source="9-4KeMkiLm9I7KY2BT6Z-8" target="9-4KeMkiLm9I7KY2BT6Z-11" edge="1">
          <mxGeometry x="-0.0529" y="-19" width="80" relative="1" as="geometry">
            <mxPoint x="520" y="381" as="sourcePoint"/>
            <mxPoint x="600" y="381" as="targetPoint"/>
            <mxPoint as="offset"/>
          </mxGeometry>
        </mxCell>
        <mxCell id="9-4KeMkiLm9I7KY2BT6Z-13" value="" style="html=1;verticalAlign=bottom;endArrow=block;exitX=0.5;exitY=1;exitDx=0;exitDy=0;" parent="1" source="9-4KeMkiLm9I7KY2BT6Z-6" edge="1">
          <mxGeometry width="80" relative="1" as="geometry">
            <mxPoint x="660" y="301" as="sourcePoint"/>
            <mxPoint x="680" y="351" as="targetPoint"/>
          </mxGeometry>
        </mxCell>
        <mxCell id="9-4KeMkiLm9I7KY2BT6Z-18" value="initial state" style="endArrow=open;endSize=12;dashed=1;html=1;entryX=0;entryY=0.5;entryDx=0;entryDy=0;" parent="1" target="9-4KeMkiLm9I7KY2BT6Z-1" edge="1">
          <mxGeometry width="160" relative="1" as="geometry">
            <mxPoint x="220" y="76.5" as="sourcePoint"/>
            <mxPoint x="380" y="76.5" as="targetPoint"/>
          </mxGeometry>
        </mxCell>
      </root>
    </mxGraphModel>
  </diagram>
</mxfile>
